<svg width="20" height="20" viewBox="0 0 20 20" fill="none" xmlns="http://www.w3.org/2000/svg">
<path d="M18.75 17.9437L17.625 14.2812C18.6691 12.4219 18.9984 10.2454 18.5509 8.1605C18.1034 6.07561 16.91 4.22588 15.1949 2.95885C13.4797 1.69182 11.361 1.09471 9.23662 1.27971C7.11228 1.46471 5.12861 2.41908 3.65832 3.9635C2.18803 5.50793 1.33231 7.53611 1.25195 9.66697C1.17159 11.7978 1.87211 13.8847 3.22191 15.5355C4.5717 17.1863 6.47785 18.2873 8.58222 18.6318C10.6866 18.9763 12.8443 18.5404 14.65 17.4062L17.8938 18.7062C17.999 18.7442 18.1126 18.7532 18.2225 18.7323C18.3324 18.7114 18.4347 18.6614 18.5188 18.5874C18.6157 18.5142 18.6892 18.4143 18.7303 18.3C18.7713 18.1857 18.7782 18.0619 18.75 17.9437ZM5.62501 11.2499C5.37778 11.2499 5.13611 11.1766 4.93054 11.0393C4.72498 10.9019 4.56477 10.7067 4.47016 10.4783C4.37555 10.2499 4.35079 9.99855 4.39902 9.75608C4.44726 9.5136 4.56631 9.29087 4.74112 9.11606C4.91594 8.94124 5.13867 8.82219 5.38114 8.77396C5.62362 8.72573 5.87495 8.75048 6.10336 8.84509C6.33177 8.9397 6.52699 9.09991 6.66434 9.30548C6.8017 9.51104 6.87501 9.75271 6.87501 9.99994C6.87501 10.3315 6.74331 10.6494 6.50889 10.8838C6.27447 11.1182 5.95653 11.2499 5.62501 11.2499ZM10 11.2499C9.75278 11.2499 9.51111 11.1766 9.30554 11.0393C9.09998 10.9019 8.93977 10.7067 8.84516 10.4783C8.75055 10.2499 8.72579 9.99855 8.77402 9.75608C8.82226 9.5136 8.94131 9.29087 9.11612 9.11606C9.29094 8.94124 9.51367 8.82219 9.75614 8.77396C9.99862 8.72573 10.25 8.75048 10.4784 8.84509C10.7068 8.9397 10.902 9.09991 11.0393 9.30548C11.1767 9.51104 11.25 9.75271 11.25 9.99994C11.25 10.3315 11.1183 10.6494 10.8839 10.8838C10.6495 11.1182 10.3315 11.2499 10 11.2499ZM14.375 11.2499C14.1278 11.2499 13.8861 11.1766 13.6805 11.0393C13.475 10.9019 13.3148 10.7067 13.2202 10.4783C13.1255 10.2499 13.1008 9.99855 13.149 9.75608C13.1973 9.5136 13.3163 9.29087 13.4911 9.11606C13.6659 8.94124 13.8887 8.82219 14.1311 8.77396C14.3736 8.72573 14.625 8.75048 14.8534 8.84509C15.0818 8.9397 15.277 9.09991 15.4143 9.30548C15.5517 9.51104 15.625 9.75271 15.625 9.99994C15.625 10.3315 15.4933 10.6494 15.2589 10.8838C15.0245 11.1182 14.7065 11.2499 14.375 11.2499Z" fill="black"/>
</svg>
