<svg width="62" height="62" viewBox="0 0 62 62" fill="none" xmlns="http://www.w3.org/2000/svg">
<g clip-path="url(#clip0)">
<path d="M57.2307 5.32593H4.76928C2.09528 5.32593 0 7.42121 0 10.0952V51.9055C0 54.5795 2.09528 56.6748 4.76928 56.6748H57.2308C59.9048 56.6748 62.0001 54.5795 62.0001 51.9055V10.0952C62 7.42121 59.9047 5.32593 57.2307 5.32593ZM57.2307 51.9055H4.76928L4.73271 10.0984C4.73271 10.0984 4.74385 10.0952 4.76928 10.0952H57.2308V51.9055H57.2307Z" fill="#C4C4C4"/>
<path d="M23.694 20.4957C22.8895 19.5235 21.4651 19.3487 20.4461 20.0958L0.971802 34.4035L3.79595 38.2475L21.458 25.2712L46.5719 55.5725L50.2427 52.5289L23.694 20.4957Z" fill="#C4C4C4"/>
<path d="M46.6279 22.6124C45.759 21.9248 44.5317 21.9273 43.6637 22.6164L32.3766 31.5984L35.3462 35.3303L45.1533 27.5263L58.1359 37.7984L61.0945 34.0586L46.6279 22.6124Z" fill="#C4C4C4"/>
</g>
<defs>
<clipPath id="clip0">
<rect width="62" height="62" fill="white"/>
</clipPath>
</defs>
</svg>
