<svg width="19" height="19" viewBox="0 0 19 19" fill="none" xmlns="http://www.w3.org/2000/svg">
<g opacity="0.6" clip-path="url(#clip0)">
<path d="M13.1472 11.2745C15.4279 8.05393 14.6651 3.59432 11.4445 1.31412C8.22391 -0.966076 3.76431 -0.20383 1.48411 3.01733C-0.796093 6.23794 -0.033847 10.697 3.18731 12.9772C5.48604 14.6047 8.52521 14.73 10.9498 13.2981L16.218 18.5347C16.7868 19.1335 17.7332 19.1574 18.332 18.5886C18.9308 18.0203 18.9547 17.0739 18.3865 16.4751C18.3685 16.4561 18.3511 16.4386 18.332 16.4207L13.1472 11.2745ZM7.31129 11.7627C4.76629 11.7633 2.70294 9.70156 2.7013 7.15656C2.70076 4.61156 4.76247 2.54821 7.30802 2.54712C9.84974 2.54603 11.912 4.60448 11.9169 7.14621C11.9213 9.69175 9.86064 11.7584 7.31455 11.7627C7.31347 11.7627 7.31292 11.7627 7.31129 11.7627Z" fill="#ABABAB"/>
</g>
<defs>
<clipPath id="clip0">
<rect width="19" height="19" fill="white"/>
</clipPath>
</defs>
</svg>
