<svg width="52" height="52" viewBox="0 0 52 52" fill="none" xmlns="http://www.w3.org/2000/svg">
<circle cx="26" cy="26" r="26" fill="#C4C4C4"/>
<circle cx="26" cy="26" r="19" fill="black"/>
<path d="M23 36C24.8037 36 26.5705 36 28.3742 36C27.4908 37.546 26.6074 39.0736 25.6871 40.638C24.7853 39.0736 23.9018 37.546 23 36Z" fill="white"/>
<path d="M28.3743 16.6381C26.5706 16.6381 24.8037 16.6381 23 16.6381C23.8835 15.092 24.7669 13.5644 25.6872 12C26.589 13.5644 27.4724 15.092 28.3743 16.6381Z" fill="white"/>
<path d="M16.6381 23C16.6381 24.8037 16.6381 26.5705 16.6381 28.3742C15.092 27.4908 13.5644 26.6074 12 25.6871C13.5644 24.7853 15.092 23.9018 16.6381 23Z" fill="white"/>
<path d="M35 28.3743C35 26.5706 35 24.8037 35 23C36.546 23.8835 38.0736 24.7669 39.638 25.6872C38.0736 26.589 36.546 27.4724 35 28.3743Z" fill="white"/>
</svg>
